<?xml version="1.0" encoding="UTF-8" standalone="no"?>
<svg
   version="1.1"
   x="0px"
   y="0px"
   viewBox="0 0 100 125"
   enable-background="new 0 0 100 100"
   xml:space="preserve"
   id="svg2"
   sodipodi:docname="kunai.svg"
   inkscape:version="1.4.2 (f4327f4, 2025-05-13)"
   xmlns:inkscape="http://www.inkscape.org/namespaces/inkscape"
   xmlns:sodipodi="http://sodipodi.sourceforge.net/DTD/sodipodi-0.dtd"
   xmlns="http://www.w3.org/2000/svg"
   xmlns:svg="http://www.w3.org/2000/svg">
  <defs id="defs2" />
  <sodipodi:namedview
     id="namedview2"
     pagecolor="#FF0000"
     bordercolor="#FF0000"
     borderopacity="0.25"
     inkscape:showpageshadow="2"
     inkscape:pageopacity="0.0"
     inkscape:pagecheckerboard="0"
     inkscape:deskcolor="#d1d1d1"
     showgrid="false"
     inkscape:zoom="6.52"
     inkscape:cx="50"
     inkscape:cy="62.5"
     inkscape:window-width="1920"
     inkscape:window-height="1017"
     inkscape:window-x="1912"
     inkscape:window-y="-8"
     inkscape:window-maximized="1"
     inkscape:current-layer="svg2" />
  <path
     id="path1"
     d="M 50,5 40.332031,40 47.5,50.152344 v 21.779297 h 1.244141 1.472656 1.339844 H 52.5 V 50 L 60,40 Z m 4.089844,81.554688 c -0.0951,0.0037 -0.190032,0.0074 -0.285156,0.0098 0.06615,0.01324 0.132965,0.02596 0.199218,0.03906 0.02959,-0.01476 0.05841,-0.02991 0.08789,-0.04492 l -0.002,-0.002 z"
     fill="#FF0000"/>
  <path
     id="text1"
     d="m 11.832031,114.61914 c 0.03329,0.007 0.06631,0.0144 0.09961,0.0215 0.01954,-0.004 0.03906,-0.009 0.05859,-0.0137 -0.05283,-0.003 -0.105356,-0.005 -0.158203,-0.008 z m -5.3886716,0.35352 c 0.090985,0.0341 0.1897934,0.0583 0.296875,0.0723 -0.095465,-0.023 -0.1945943,-0.0473 -0.296875,-0.0723 z"
     fill="#FF0000"/>
  <path
     id="text2"
     d="m 35.916016,116.42188 v 0.006 c 0.49651,-5.2e-4 0.993725,-8.8e-4 1.490234,-0.002 -0.09859,-0.003 -0.209746,-0.004 -0.332031,-0.004 z m -30.9882816,3.03906 c 0.016788,0.0231 0.0329,0.0427 0.046875,0.0605 -0.00398,-0.0166 -0.00728,-0.0325 -0.011719,-0.0488 -0.011272,-0.004 -0.024176,-0.007 -0.035156,-0.0117 z"
     fill="#FF0000"/>
</svg>
